#!OML:ASF E:\motion texture\Top Level 1\Subject 1\Session 1\male.ASF
:FULLY-SPECIFIED
:DEGREES
366
root 18.0851 17.9265 5.62658 119.506 -76.6536 -121.174
lowerback 2.40514 3.63648 9.1196
upperback -1.42472 5.13104 4.44357
thorax -2.44174 2.36744 -0.683049
lowerneck -20.0677 -6.31184 -7.64268
upperneck 18.0748 -8.14471 7.29095
head 9.65112 -3.54416 2.60784
rclavicle 2.00524e-014 2.5842e-014
rhumerus 30.4464 20.8915 -66.4483
rradius 73.2413
rwrist -14.2801
rhand -12.2162 -9.29822
rfingers 7.12502
rthumb 13.8487 -38.8172
lclavicle 2.00524e-014 2.5842e-014
lhumerus -73.9037 -18.4457 80.4945
lradius 47.6496
lwrist 2.93511
lhand -10.5313 3.26048
lfingers 7.12502
lthumb 15.472 32.6613
rfemur 6.36187 5.32289 39.4617
rtibia 21.7251
rfoot -13.2571 -12.3287
rtoes 3.99942
lfemur -88.8342 3.75246 -10.8281
ltibia 72.2194
lfoot 364.901 -170.923
ltoes -4.27214
367
root 17.9548 17.9211 5.62521 119.578 -76.7154 -121.033
lowerback 2.22001 3.6449 9.07138
upperback -1.46119 5.11993 4.41583
thorax -2.37769 2.36475 -0.673736
lowerneck -20.0447 -6.32292 -7.66618
upperneck 18.0132 -8.16574 7.35788
head 9.63141 -3.54916 2.6321
rclavicle 1.21756e-014 3.77691e-014
rhumerus 29.7159 20.902 -66.8523
rradius 73.1784
rwrist -14.119
rhand -12.1989 -9.25613
rfingers 7.12502
rthumb 13.8654 -38.7739
lclavicle 1.21756e-014 3.77691e-014
lhumerus -73.5006 -18.4998 80.7303
lradius 47.6618
lwrist 2.88541
lhand -10.5393 3.27347
lfingers 7.12502
lthumb 15.4642 32.6749
rfemur 6.51228 5.35349 39.362
rtibia 21.8551
rfoot -13.3164 -12.2272
rtoes 3.30978
lfemur -87.9006 3.85751 -10.8605
ltibia 74.0006
lfoot 365.24 -170.538
ltoes -4.29179
368
root 17.8239 17.915 5.62393 119.8 -76.7718 -121.009
lowerback 2.00766 3.65988 9.0186
upperback -1.50849 5.11501 4.37987
thorax -2.30876 2.36514 -0.669051
lowerneck -20.0175 -6.33126 -7.68929
upperneck 17.9528 -8.18294 7.42254
head 9.61099 -3.55275 2.65618
rclavicle 1.41883e-014 -9.74045e-015
rhumerus 28.9128 20.9396 -67.2913
rradius 73.1121
rwrist -13.9567
rhand -12.194 -9.22976
rfingers 7.12502
rthumb 13.8701 -38.7473
lclavicle 1.41883e-014 -9.74045e-015
lhumerus -73.0724 -18.5443 80.9988
lradius 47.6567
lwrist 2.82273
lhand -10.549 3.30076
lfingers 7.12502
lthumb 15.4549 32.7029
rfemur 6.64376 5.40475 39.2516
rtibia 21.9674
rfoot -13.3772 -12.122
rtoes 2.63485
lfemur -86.8564 4.01855 -10.8944
ltibia 75.8761
lfoot 365.658 -170.018
ltoes -4.36665
369
root 17.6921 17.9078 5.62275 120.141 -76.8209 -121.07
lowerback 1.76711 3.67871 8.96721
upperback -1.56777 5.11274 4.33683
thorax -2.23548 2.36664 -0.670883
lowerneck -19.9798 -6.3347 -7.70981
upperneck 17.8892 -8.19398 7.48432
head 9.58683 -3.55398 2.67996
rclavicle 2.47363e-014 3.33958e-014
rhumerus 28.0423 21.003 -67.7651
rradius 73.0408
rwrist -13.7928
rhand -12.2007 -9.21222
rfingers 7.12502
rthumb 13.8636 -38.7302
lclavicle 2.47363e-014 3.33958e-014
lhumerus -72.6208 -18.5784 81.2963
lradius 47.6309
lwrist 2.74795
lhand -10.5659 3.34577
lfingers 7.12502
lthumb 15.4386 32.7492
rfemur 6.75783 5.46997 39.1357
rtibia 22.0562
rfoot -13.438 -12.017
rtoes 1.98505
lfemur -85.7089 4.22921 -10.926
ltibia 77.8464
lfoot 366.15 -169.342
ltoes -4.51504
370
root 17.5592 17.8997 5.62151 120.581 -76.8569 -121.206
lowerback 1.50069 3.70158 8.92193
upperback -1.63164 5.11312 4.28952
thorax -2.15133 2.36951 -0.678707
lowerneck -19.9443 -6.33454 -7.72623
upperneck 17.825 -8.19951 7.5401
head 9.56192 -3.55299 2.70178
rclavicle 2.3233e-015 3.08116e-014
rhumerus 27.1125 21.0876 -68.2642
rradius 72.9643
rwrist -13.6271
rhand -12.2025 -9.20836
rfingers 7.12502
rthumb 13.8619 -38.7264
lclavicle 2.3233e-015 3.08116e-014
lhumerus -72.1298 -18.5938 81.6112
lradius 47.5759
lwrist 2.6586
lhand -10.5959 3.39838
lfingers 7.12502
lthumb 15.4097 32.804
rfemur 6.86626 5.53953 39.0203
rtibia 22.1176
rfoot -13.4989 -11.9098
rtoes 1.35421
lfemur -84.4518 4.48915 -10.9474
ltibia 79.92
lfoot 366.726 -168.43
ltoes -4.70723
371
root 17.4249 17.8905 5.62036 121.112 -76.8756 -121.412
lowerback 1.21634 3.72692 8.88744
upperback -1.70121 5.11516 4.23994
thorax -2.06181 2.37291 -0.693569
lowerneck -19.9101 -6.32891 -7.73726
upperneck 17.76 -8.19708 7.58864
head 9.53571 -3.5487 2.72139
rclavicle 2.39039e-014 8.74653e-015
rhumerus 26.1249 21.2007 -68.7811
rradius 72.8792
rwrist -13.4616
rhand -12.206 -9.1988
rfingers 7.12502
rthumb 13.8585 -38.7171
lclavicle 2.39039e-014 8.74653e-015
lhumerus -71.6018 -18.586 81.9409
lradius 47.4838
lwrist 2.5611
lhand -10.6428 3.45788
lfingers 7.12502
lthumb 15.3645 32.867
rfemur 6.97436 5.61092 38.9075
rtibia 22.1534
rfoot -13.5634 -11.7982
rtoes 0.757136
lfemur -83.0838 4.79679 -10.956
ltibia 82.5826
lfoot 367.633 -146.844
ltoes -4.92621
372
root 17.2885 17.8803 5.6194 121.766 -76.8698 -121.73
lowerback 0.910872 3.75816 8.86524
upperback -1.76662 5.1221 4.19029
thorax -1.9547 2.37907 -0.713389
lowerneck -19.883 -6.31677 -7.74039
upperneck 17.687 -8.1845 7.62863
head 9.50642 -3.53992 2.73813
rclavicle -3.92227e-014 -3.61788e-014
rhumerus 25.093 21.3376 -69.3145
rradius 72.7841
rwrist -13.2917
rhand -12.2153 -9.18053
rfingers 7.12502
rthumb 13.8495 -38.6994
lclavicle -3.92227e-014 -3.61788e-014
lhumerus -71.0259 -18.5462 82.2761
lradius 47.3606
lwrist 2.45649
lhand -10.7102 3.52929
lfingers 7.12502
lthumb 15.2997 32.9434
rfemur 7.09561 5.68396 38.796
rtibia 22.1607
rfoot -13.6297 -11.6726
rtoes 0.174873
lfemur -81.5965 5.16214 -10.9504
ltibia 85.6535
lfoot 369.111 -125.337
ltoes -5.19307
373
root 17.1505 17.869 5.61868 122.498 -76.8441 -122.116
lowerback 0.59777 3.79074 8.85337
upperback -1.83133 5.12977 4.14273
thorax -1.84188 2.38545 -0.735894
lowerneck -19.8669 -6.29832 -7.73549
upperneck 17.6096 -8.16129 7.65665
head 9.47572 -3.52664 2.7508
rclavicle -1.922e-014 -2.38542e-015
rhumerus 24.0125 21.4986 -69.8648
rradius 72.685
rwrist -13.1108
rhand -12.214 -9.16754
rfingers 7.12502
rthumb 13.8508 -38.6863
lclavicle -1.922e-014 -2.38542e-015
lhumerus -70.3988 -18.4676 82.615
lradius 47.1986
lwrist 2.35318
lhand -10.8108 3.62255
lfingers 7.12502
lthumb 15.2028 33.044
rfemur 7.22598 5.75511 38.6865
rtibia 22.1486
rfoot -13.6998 -11.5397
rtoes -0.410237
lfemur -79.9917 5.57119 -10.9313
ltibia 88.1323
lfoot 373.087 -103.956
ltoes -5.46574
374
root 17.0103 17.8563 5.61833 123.317 -76.801 -122.582
lowerback 0.271969 3.82686 8.84686
upperback -1.8923 5.14012 4.09764
thorax -1.71765 2.39339 -0.757533
lowerneck -19.8607 -6.27514 -7.72402
upperneck 17.5243 -8.12944 7.67445
head 9.44253 -3.50974 2.75996
rclavicle 1.63128e-014 1.5704e-014
rhumerus 22.8865 21.6749 -70.4355
rradius 72.5774
rwrist -12.9081
rhand -12.2287 -9.13159
rfingers 7.12502
rthumb 13.8366 -38.6514
lclavicle 1.63128e-014 1.5704e-014
lhumerus -69.709 -18.3462 82.9523
lradius 46.9923
lwrist 2.25725
lhand -10.95 3.71215
lfingers 7.12502
lthumb 15.0687 33.1437
rfemur 7.36977 5.82565 38.572
rtibia 22.1159
rfoot -13.7731 -11.391
rtoes -0.989731
lfemur -78.2682 6.02171 -10.9028
ltibia 89.2204
lfoot 539.381 -97.497
ltoes -5.7205
375
root 16.8676 17.8423 5.6184 124.217 -76.7438 -123.125
lowerback -0.0643188 3.86626 8.83945
upperback -1.94892 5.15297 4.05681
thorax -1.58331 2.40291 -0.773158
lowerneck -19.8581 -6.24731 -7.7118
upperneck 17.4251 -8.08907 7.68947
head 9.4043 -3.48907 2.7692
rclavicle -4.01421e-014 -3.89618e-014
rhumerus 21.7096 21.8646 -71.0241
rradius 72.4679
rwrist -12.6867
rhand -12.2441 -9.09256
rfingers 7.12502
rthumb 13.8218 -38.6134
lclavicle -4.01421e-014 -3.89618e-014
lhumerus -68.9571 -18.1756 83.2848
lradius 46.7468
lwrist 2.16644
lhand -11.1169 3.8227
lfingers 7.12502
lthumb 14.9079 33.2663
rfemur 7.52827 5.8998 38.4496
rtibia 22.0684
rfoot -13.8487 -11.2268
rtoes -1.56777
lfemur -76.424 6.50849 -10.8677
ltibia 88.5257
lfoot 547.592 -118.599
ltoes -5.91671
376
root 16.7223 17.8267 5.61891 125.175 -76.6826 -123.724
lowerback -0.394978 3.9053 8.8231
upperback -2.01258 5.16655 4.01829
thorax -1.46045 2.41224 -0.782054
lowerneck -19.8621 -6.21551 -7.69828
upperneck 17.327 -8.04188 7.69903
head 9.36682 -3.46551 2.77723
rclavicle 2.86871e-014 2.56432e-014
rhumerus 20.4619 22.069 -71.6383
rradius 72.3608
rwrist -12.4487
rhand -12.26 -9.0798
rfingers 7.12502
rthumb 13.8064 -38.6016
lclavicle 2.86871e-014 2.56432e-014
lhumerus -68.161 -17.9539 83.6133
lradius 46.4715
lwrist 2.08941
lhand -11.3094 3.96569
lfingers 7.12502
lthumb 14.7224 33.4229
rfemur 7.69952 5.97189 38.3109
rtibia 22.0108
rfoot -13.9264 -11.0468
rtoes -2.14984
lfemur -74.4669 7.01834 -10.8352
ltibia 86.1723
lfoot 549.863 -139.644
ltoes -5.9903
377
root 16.5741 17.8094 5.61988 126.174 -76.6231 -124.36
lowerback -0.730152 3.94322 8.79503
upperback -2.08248 5.17856 3.98115
thorax -1.34285 2.42053 -0.782966
lowerneck -19.8603 -6.18007 -7.68915
upperneck 17.2253 -7.98982 7.71401
head 9.32708 -3.4396 2.78866
rclavicle 5.889e-015 1.0138e-014
rhumerus 19.1378 22.2842 -72.2779
rradius 72.2603
rwrist -12.202
rhand -12.2916 -9.06677
rfingers 7.12502
rthumb 13.776 -38.5907
lclavicle 5.889e-015 1.0138e-014
lhumerus -67.315 -17.6783 83.9341
lradius 46.1633
lwrist 2.02891
lhand -11.5338 4.13057
lfingers 7.12502
lthumb 14.5062 33.6034
rfemur 7.88121 6.03858 38.1507
rtibia 21.9444
rfoot -13.998 -10.8455
rtoes -2.75248
lfemur -72.3969 7.53876 -10.807
ltibia 82.79
lfoot 551.534 -160.575
ltoes -5.94203
378
root 16.4226 17.7904 5.62141 127.205 -76.5695 -125.025
lowerback -1.07012 3.97932 8.75408
upperback -2.1648 5.18868 3.94219
thorax -1.23664 2.42726 -0.778795
lowerneck -19.8417 -6.14009 -7.67746
upperneck 17.124 -7.93407 7.73027
head 9.2842 -3.41219 2.80095
rclavicle 3.06439e-014 -1.78906e-014
rhumerus 17.7179 22.5057 -72.9527
rradius 72.1665
rwrist -11.9499
rhand -12.3236 -9.06665
rfingers 7.12502
rthumb 13.7452 -38.5926
lclavicle 3.06439e-014 -1.78906e-014
lhumerus -66.4303 -17.3449 84.2432
lradius 45.823
lwrist 1.9798
lhand -11.7774 4.32842
lfingers 7.12502
lthumb 14.2715 33.818
rfemur 8.07072 6.10076 37.9664
rtibia 21.8784
rfoot -14.0667 -10.6236
rtoes -3.3832
lfemur -70.216 8.05533 -10.7825
ltibia 79.4029
lfoot 552.952 -181.383
ltoes -5.73483
379
root 16.2672 17.7697 5.62364 128.244 -76.5261 -125.698
lowerback -1.41478 4.01184 8.70376
upperback -2.25935 5.19465 3.8989
thorax -1.14132 2.43127 -0.77411
lowerneck -19.7985 -6.09157 -7.66399
upperneck 17.0115 -7.87058 7.7568
head 9.23292 -3.38078 2.81804
rclavicle 1.06412e-014 1.17283e-014
rhumerus 16.1921 22.7332 -73.6594
rradius 72.078
rwrist -11.7136
rhand -12.3627 -9.07439
rfingers 7.12502
rthumb 13.7075 -38.6029
lclavicle 1.06412e-014 1.17283e-014
lhumerus -65.5159 -16.9574 84.5406
lradius 45.4616
lwrist 1.94201
lhand -12.0289 4.55248
lfingers 7.12502
lthumb 14.0291 34.059
rfemur 8.27556 6.15646 37.7568
rtibia 21.8084
rfoot -14.1261 -10.3802
rtoes -4.04424
lfemur -67.9274 8.55075 -10.7604
ltibia 76.3625
lfoot 553.717 -181.688
ltoes -5.42188
